<?xml version="1.0" encoding="UTF-8"?>
<!DOCTYPE svg PUBLIC "-//W3C//DTD SVG 1.1//EN" "http://www.w3.org/Graphics/SVG/1.1/DTD/svg11.dtd">
<svg xmlns="http://www.w3.org/2000/svg" version="1.1" width="1007px" height="522px" style="shape-rendering:geometricPrecision; text-rendering:geometricPrecision; image-rendering:optimizeQuality; fill-rule:evenodd; clip-rule:evenodd" xmlns:xlink="http://www.w3.org/1999/xlink">
<g><path style="opacity:1" fill="#ff8704" d="M -0.5,-0.5 C 1.16667,-0.5 2.83333,-0.5 4.5,-0.5C 175.21,42.1268 340.21,100.96 499.5,176C 635.399,241.727 762.399,320.727 880.5,413C 922.715,447.603 964.715,482.436 1006.5,517.5C 1006.5,518.833 1006.5,520.167 1006.5,521.5C 670.833,521.5 335.167,521.5 -0.5,521.5C -0.5,347.5 -0.5,173.5 -0.5,-0.5 Z"/></g>
<g><path style="opacity:1" fill="#fffefe" d="M 4.5,-0.5 C 338.5,-0.5 672.5,-0.5 1006.5,-0.5C 1006.5,172.167 1006.5,344.833 1006.5,517.5C 964.715,482.436 922.715,447.603 880.5,413C 762.399,320.727 635.399,241.727 499.5,176C 340.21,100.96 175.21,42.1268 4.5,-0.5 Z"/></g>
<g><path style="opacity:1" fill="#fffbf7" d="M 102.5,79.5 C 105.978,79.1842 109.312,79.6842 112.5,81C 117.333,85.1667 122.167,89.3333 127,93.5C 128.412,82.5265 134.579,78.6932 145.5,82C 147.081,82.7065 148.581,83.5399 150,84.5C 151.287,95.0688 151.954,105.735 152,116.5C 156.967,120.466 161.634,124.799 166,129.5C 166.769,132.099 166.602,134.599 165.5,137C 162.312,138.316 158.978,138.816 155.5,138.5C 155.97,154.596 155.47,170.596 154,186.5C 152.269,188.617 150.102,190.117 147.5,191C 134.167,191.667 120.833,191.667 107.5,191C 106.584,190.626 105.75,190.126 105,189.5C 103.714,179.265 103.048,168.932 103,158.5C 98.3333,153.167 93.6667,153.167 89,158.5C 88.9524,168.932 88.2857,179.265 87,189.5C 86.2496,190.126 85.4162,190.626 84.5,191C 78.1667,191.667 71.8333,191.667 65.5,191C 61.6667,189.833 59.1667,187.333 58,183.5C 57.5001,168.504 57.3334,153.504 57.5,138.5C 50.2264,140.37 46.7264,137.703 47,130.5C 65.3961,113.266 83.8961,96.2657 102.5,79.5 Z"/></g>
<g><path style="opacity:1" fill="#ff880a" d="M 146.5,181.5 C 135.5,181.5 124.5,181.5 113.5,181.5C 113.825,174.313 113.491,167.313 112.5,160.5C 110.093,149.28 103.093,144.446 91.5,146C 83.9936,148.536 79.9936,153.703 79.5,161.5C 78.5093,167.979 78.176,174.646 78.5,181.5C 74.8333,181.5 71.1667,181.5 67.5,181.5C 66.6685,165.338 66.1685,149.005 66,132.5C 64.992,130.741 63.492,129.574 61.5,129C 76.1667,115.667 90.8333,102.333 105.5,89C 106.5,88.3333 107.5,88.3333 108.5,89C 114.135,93.6335 119.468,98.6335 124.5,104C 126.777,105.959 129.277,107.459 132,108.5C 133.711,108.561 135.044,107.894 136,106.5C 136.499,101.177 136.666,95.8437 136.5,90.5C 138.5,90.5 140.5,90.5 142.5,90.5C 142.334,100.172 142.5,109.839 143,119.5C 145.79,122.991 148.957,126.158 152.5,129C 150.919,129.707 149.419,130.54 148,131.5C 147.832,148.338 147.332,165.005 146.5,181.5 Z"/></g>
<g><path style="opacity:1" fill="#fff9f3" d="M 121.5,147.5 C 127.176,147.334 132.843,147.501 138.5,148C 141.962,150.56 143.296,154.06 142.5,158.5C 142.933,162.782 141.933,166.615 139.5,170C 121.492,176.322 114.325,170.156 118,151.5C 119.032,149.973 120.199,148.64 121.5,147.5 Z"/></g>
<g><path style="opacity:1" fill="#ffac51" d="M 79.5,161.5 C 79.5,168.5 79.5,175.5 79.5,182.5C 75.2984,182.817 71.2984,182.483 67.5,181.5C 71.1667,181.5 74.8333,181.5 78.5,181.5C 78.176,174.646 78.5093,167.979 79.5,161.5 Z"/></g>
<g><path style="opacity:1" fill="#ffc383" d="M 125.5,154.5 C 125.5,157.5 125.5,160.5 125.5,163.5C 128.5,163.5 131.5,163.5 134.5,163.5C 134.5,160.5 134.5,157.5 134.5,154.5C 135.479,157.625 135.813,160.958 135.5,164.5C 131.833,164.5 128.167,164.5 124.5,164.5C 124.187,160.958 124.521,157.625 125.5,154.5 Z"/></g>
<g><path style="opacity:1" fill="#fe8702" d="M 125.5,154.5 C 128.5,154.5 131.5,154.5 134.5,154.5C 134.5,157.5 134.5,160.5 134.5,163.5C 131.5,163.5 128.5,163.5 125.5,163.5C 125.5,160.5 125.5,157.5 125.5,154.5 Z"/></g>
<g><path style="opacity:1" fill="#ffa849" d="M 112.5,160.5 C 113.491,167.313 113.825,174.313 113.5,181.5C 124.5,181.5 135.5,181.5 146.5,181.5C 135.346,182.495 124.012,182.828 112.5,182.5C 112.5,175.167 112.5,167.833 112.5,160.5 Z"/></g>
<g><path style="opacity:1" fill="#fffdfa" d="M 47.5,241.5 C 55.8333,241.5 64.1667,241.5 72.5,241.5C 76.0973,262.494 80.4306,283.161 85.5,303.5C 90.0896,282.885 94.4229,262.219 98.5,241.5C 106.833,241.5 115.167,241.5 123.5,241.5C 123.5,265.167 123.5,288.833 123.5,312.5C 119.167,312.5 114.833,312.5 110.5,312.5C 110.833,292.156 110.5,271.822 109.5,251.5C 104.277,271.612 99.9439,291.945 96.5,312.5C 89.1365,312.831 81.8032,312.497 74.5,311.5C 70.422,291.443 66.0887,271.443 61.5,251.5C 60.5004,271.822 60.167,292.156 60.5,312.5C 56.1667,312.5 51.8333,312.5 47.5,312.5C 47.5,288.833 47.5,265.167 47.5,241.5 Z"/></g>
<g><path style="opacity:1" fill="#fffdfc" d="M 260.5,246.5 C 260.5,251.833 260.5,257.167 260.5,262.5C 265.167,262.5 269.833,262.5 274.5,262.5C 274.5,265.833 274.5,269.167 274.5,272.5C 269.833,272.5 265.167,272.5 260.5,272.5C 260.173,282.015 260.506,291.348 261.5,300.5C 261.611,301.117 261.944,301.617 262.5,302C 266.152,302.499 269.818,302.665 273.5,302.5C 273.5,305.833 273.5,309.167 273.5,312.5C 267.158,312.666 260.825,312.5 254.5,312C 251.183,310.52 249.183,308.02 248.5,304.5C 248.5,293.833 248.5,283.167 248.5,272.5C 244.167,272.5 239.833,272.5 235.5,272.5C 235.5,269.167 235.5,265.833 235.5,262.5C 239.5,262.5 243.5,262.5 247.5,262.5C 247.5,257.167 247.5,251.833 247.5,246.5C 251.833,246.5 256.167,246.5 260.5,246.5 Z"/></g>
<g><path style="opacity:1" fill="#fffcfa" d="M 152.5,261.5 C 179.991,259.154 191.157,271.488 186,298.5C 181.005,308.842 172.672,314.176 161,314.5C 139.517,311.227 131.183,298.894 136,277.5C 139.438,269.893 144.938,264.56 152.5,261.5 Z"/></g>
<g><path style="opacity:1" fill="#ff9f36" d="M 260.5,246.5 C 261.487,251.305 261.821,256.305 261.5,261.5C 266.032,261.182 270.366,261.515 274.5,262.5C 269.833,262.5 265.167,262.5 260.5,262.5C 260.5,257.167 260.5,251.833 260.5,246.5 Z"/></g>
<g><path style="opacity:1" fill="#fffdfb" d="M 326.5,332.5 C 314.5,332.5 302.5,332.5 290.5,332.5C 290.5,329.167 290.5,325.833 290.5,322.5C 300.681,322.827 310.681,322.494 320.5,321.5C 321.117,321.389 321.617,321.056 322,320.5C 322.829,315.467 322.662,310.467 321.5,305.5C 314.829,312.116 306.829,314.282 297.5,312C 286.694,307.011 281.361,298.511 281.5,286.5C 283.238,267.248 293.571,259.082 312.5,262C 315.919,263.586 318.919,265.752 321.5,268.5C 322.466,266.604 322.799,264.604 322.5,262.5C 326.5,262.5 330.5,262.5 334.5,262.5C 334.667,283.836 334.5,305.169 334,326.5C 332.52,329.817 330.02,331.817 326.5,332.5 Z"/></g>
<g><path style="opacity:1" fill="#fffdfb" d="M 362.5,282.5 C 368.167,282.5 373.833,282.5 379.5,282.5C 379.795,280.265 379.461,278.265 378.5,276.5C 377.075,272.696 374.242,271.029 370,271.5C 367.7,271.494 365.534,271.994 363.5,273C 361.76,275.035 359.926,276.869 358,278.5C 354.389,277.751 351.223,276.251 348.5,274C 352.343,264.738 359.343,260.571 369.5,261.5C 379.736,260.197 386.903,264.197 391,273.5C 391.333,282.5 391.667,291.5 392,300.5C 393.789,302.229 395.956,302.896 398.5,302.5C 398.5,305.833 398.5,309.167 398.5,312.5C 394.154,312.666 389.821,312.499 385.5,312C 382.994,310.493 381.328,308.327 380.5,305.5C 372.85,315.119 363.516,316.952 352.5,311C 346.83,305.72 344.996,299.22 347,291.5C 350.574,285.795 355.741,282.795 362.5,282.5 Z"/></g>
<g><path style="opacity:1" fill="#fffbf7" d="M 423.5,260.5 C 431.593,259.859 438.26,262.526 443.5,268.5C 444.466,266.604 444.799,264.604 444.5,262.5C 448.833,262.5 453.167,262.5 457.5,262.5C 457.667,283.169 457.5,303.836 457,324.5C 456.27,328.896 453.77,331.73 449.5,333C 437.171,333.5 424.838,333.667 412.5,333.5C 412.5,329.5 412.5,325.5 412.5,321.5C 423.167,321.5 433.833,321.5 444.5,321.5C 444.828,316.125 444.495,310.792 443.5,305.5C 441.284,308.621 438.284,310.788 434.5,312C 415.056,314.064 405.056,305.23 404.5,285.5C 405.247,272.771 411.58,264.438 423.5,260.5 Z"/></g>
<g><path style="opacity:1" fill="#fffcfa" d="M 518.5,282.5 C 518.5,285.167 518.5,287.833 518.5,290.5C 506.322,290.172 494.322,290.505 482.5,291.5C 484.572,301.378 490.572,304.878 500.5,302C 503.333,300.5 505.5,298.333 507,295.5C 510.421,297.461 513.921,299.294 517.5,301C 509.11,313.273 497.777,316.939 483.5,312C 476.446,308.611 471.946,303.111 470,295.5C 466.898,271.273 477.398,260.106 501.5,262C 511.755,265.003 517.422,271.836 518.5,282.5 Z"/></g>
<g><path style="opacity:1" fill="#fffdfc" d="M 211.5,262.5 C 211.5,264.5 211.5,266.5 211.5,268.5C 212.791,268.737 213.791,268.404 214.5,267.5C 214.916,265.248 216.249,263.748 218.5,263C 222.152,262.501 225.818,262.335 229.5,262.5C 229.5,266.167 229.5,269.833 229.5,273.5C 225.818,273.335 222.152,273.501 218.5,274C 216,275.167 214.167,277 213,279.5C 212.5,290.495 212.333,301.495 212.5,312.5C 208.167,312.5 203.833,312.5 199.5,312.5C 199.5,295.833 199.5,279.167 199.5,262.5C 203.5,262.5 207.5,262.5 211.5,262.5 Z"/></g>
<g><path style="opacity:1" fill="#ffd09d" d="M 211.5,262.5 C 211.972,264.531 212.972,266.198 214.5,267.5C 213.791,268.404 212.791,268.737 211.5,268.5C 211.5,266.5 211.5,264.5 211.5,262.5 Z"/></g>
<g><path style="opacity:1" fill="#ff890b" d="M 156.5,272.5 C 171.16,272.001 176.993,279.001 174,293.5C 170.434,301.485 164.267,304.319 155.5,302C 148.501,297.351 146.001,290.851 148,282.5C 149.261,277.745 152.095,274.412 156.5,272.5 Z"/></g>
<g><path style="opacity:1" fill="#ff890d" d="M 302.5,272.5 C 317.134,270.635 323.634,276.969 322,291.5C 320.833,296.667 317.667,299.833 312.5,301C 298.363,302.19 292.53,295.69 295,281.5C 296.642,277.7 299.142,274.7 302.5,272.5 Z"/></g>
<g><path style="opacity:1" fill="#ff8809" d="M 425.5,272.5 C 440.824,270.658 446.99,277.324 444,292.5C 440.39,300.496 434.223,303.329 425.5,301C 418.22,296.113 415.72,289.28 418,280.5C 420.028,277.308 422.528,274.641 425.5,272.5 Z"/></g>
<g><path style="opacity:1" fill="#ff890d" d="M 505.5,279.5 C 498.24,281.465 490.573,282.132 482.5,281.5C 483.791,275.269 487.625,272.269 494,272.5C 499.7,271.927 503.533,274.26 505.5,279.5 Z"/></g>
<g><path style="opacity:1" fill="#ffc990" d="M 235.5,272.5 C 239.833,272.5 244.167,272.5 248.5,272.5C 248.5,283.167 248.5,293.833 248.5,304.5C 247.506,294.347 247.172,284.014 247.5,273.5C 243.298,273.817 239.298,273.483 235.5,272.5 Z"/></g>
<g><path style="opacity:1" fill="#ffa544" d="M 274.5,272.5 C 270.366,273.485 266.032,273.818 261.5,273.5C 261.5,282.5 261.5,291.5 261.5,300.5C 260.506,291.348 260.173,282.015 260.5,272.5C 265.167,272.5 269.833,272.5 274.5,272.5 Z"/></g>
<g><path style="opacity:1" fill="#ffa747" d="M 378.5,276.5 C 379.461,278.265 379.795,280.265 379.5,282.5C 373.833,282.5 368.167,282.5 362.5,282.5C 367.64,281.512 372.974,281.179 378.5,281.5C 378.5,279.833 378.5,278.167 378.5,276.5 Z"/></g>
<g><path style="opacity:1" fill="#ffdebb" d="M 505.5,279.5 C 506.404,280.209 506.737,281.209 506.5,282.5C 498.316,282.826 490.316,282.492 482.5,281.5C 490.573,282.132 498.24,281.465 505.5,279.5 Z"/></g>
<g><path style="opacity:1" fill="#ffe1c1" d="M 518.5,282.5 C 519.477,285.287 519.81,288.287 519.5,291.5C 507.167,291.5 494.833,291.5 482.5,291.5C 494.322,290.505 506.322,290.172 518.5,290.5C 518.5,287.833 518.5,285.167 518.5,282.5 Z"/></g>
<g><path style="opacity:1" fill="#ffab50" d="M 363.5,292.5 C 368.64,291.512 373.974,291.179 379.5,291.5C 379.768,293.099 379.434,294.432 378.5,295.5C 378.5,294.5 378.5,293.5 378.5,292.5C 373.5,292.5 368.5,292.5 363.5,292.5 Z"/></g>
<g><path style="opacity:1" fill="#ff890c" d="M 363.5,292.5 C 368.5,292.5 373.5,292.5 378.5,292.5C 378.5,293.5 378.5,294.5 378.5,295.5C 378.067,298.195 376.734,300.362 374.5,302C 369.53,304.152 364.696,303.986 360,301.5C 357.377,296.979 358.544,293.979 363.5,292.5 Z"/></g>
<g><path style="opacity:1" fill="#ffcc94" d="M 320.5,321.5 C 310.681,322.494 300.681,322.827 290.5,322.5C 290.5,325.833 290.5,329.167 290.5,332.5C 302.5,332.5 314.5,332.5 326.5,332.5C 314.345,333.495 302.011,333.829 289.5,333.5C 289.5,329.5 289.5,325.5 289.5,321.5C 299.833,321.5 310.167,321.5 320.5,321.5 Z"/></g>
<g><path style="opacity:1" fill="#f6f4f3" d="M 45.5,379.5 C 60.5498,379.084 75.5498,379.584 90.5,381C 102.811,386.256 106.311,395.089 101,407.5C 98.6032,410.4 95.7698,412.733 92.5,414.5C 103.204,420.265 106.37,428.932 102,440.5C 99.0435,445.231 94.8769,448.398 89.5,450C 74.8371,450.5 60.1705,450.667 45.5,450.5C 45.5,446.5 45.5,442.5 45.5,438.5C 48.5,438.5 51.5,438.5 54.5,438.5C 54.5,422.833 54.5,407.167 54.5,391.5C 51.5,391.5 48.5,391.5 45.5,391.5C 45.5,387.5 45.5,383.5 45.5,379.5 Z"/></g>
<g><path style="opacity:1" fill="#f6f3f0" d="M 215.5,379.5 C 219.833,379.5 224.167,379.5 228.5,379.5C 228.5,403.167 228.5,426.833 228.5,450.5C 224.167,450.5 219.833,450.5 215.5,450.5C 215.799,448.396 215.466,446.396 214.5,444.5C 203.437,455.103 192.27,455.103 181,444.5C 175.733,435.916 174.067,426.582 176,416.5C 182.978,399.262 194.811,394.762 211.5,403C 212.155,404.487 213.155,405.653 214.5,406.5C 215.498,397.525 215.832,388.525 215.5,379.5 Z"/></g>
<g><path style="opacity:1" fill="#f6f4f2" d="M 372.5,384.5 C 376.833,384.5 381.167,384.5 385.5,384.5C 385.5,389.833 385.5,395.167 385.5,400.5C 390.167,400.5 394.833,400.5 399.5,400.5C 399.5,403.833 399.5,407.167 399.5,410.5C 394.833,410.5 390.167,410.5 385.5,410.5C 385.334,420.172 385.5,429.839 386,439.5C 390.066,440.464 394.233,440.797 398.5,440.5C 398.5,443.833 398.5,447.167 398.5,450.5C 392.158,450.666 385.825,450.5 379.5,450C 377.376,448.878 375.543,447.378 374,445.5C 372.564,433.91 372.064,422.243 372.5,410.5C 368.5,410.5 364.5,410.5 360.5,410.5C 360.5,407.167 360.5,403.833 360.5,400.5C 364.5,400.5 368.5,400.5 372.5,400.5C 372.5,395.167 372.5,389.833 372.5,384.5 Z"/></g>
<g><path style="opacity:1" fill="#fbb05e" d="M 82.5,392.5 C 77.8333,392.5 73.1667,392.5 68.5,392.5C 68.5,397.833 68.5,403.167 68.5,408.5C 67.5111,403.025 67.1778,397.358 67.5,391.5C 72.6946,391.179 77.6946,391.513 82.5,392.5 Z"/></g>
<g><path style="opacity:1" fill="#fe8705" d="M 82.5,392.5 C 85.0991,392.549 87.2658,393.549 89,395.5C 89.6667,398.5 89.6667,401.5 89,404.5C 87.786,406.049 86.286,407.215 84.5,408C 79.1771,408.499 73.8437,408.666 68.5,408.5C 68.5,403.167 68.5,397.833 68.5,392.5C 73.1667,392.5 77.8333,392.5 82.5,392.5 Z"/></g>
<g><path style="opacity:1" fill="#f6f2ee" d="M 259.5,398.5 C 267.527,397.849 274.194,400.516 279.5,406.5C 280.466,404.604 280.799,402.604 280.5,400.5C 284.833,400.5 289.167,400.5 293.5,400.5C 293.967,422.233 293.467,443.9 292,465.5C 290.125,468.187 287.625,470.021 284.5,471C 272.505,471.5 260.505,471.667 248.5,471.5C 248.5,467.5 248.5,463.5 248.5,459.5C 259.082,459.82 269.582,459.487 280,458.5C 280.829,453.467 280.662,448.467 279.5,443.5C 273.178,450.067 265.511,452.234 256.5,450C 245.161,445.636 239.828,437.303 240.5,425C 239.894,411.005 246.227,402.171 259.5,398.5 Z"/></g>
<g><path style="opacity:1" fill="#f6f3f0" d="M 321.5,399.5 C 344.004,397.009 355.004,407.009 354.5,429.5C 342.5,429.5 330.5,429.5 318.5,429.5C 320.512,439.352 326.512,442.852 336.5,440C 339.333,438.5 341.5,436.333 343,433.5C 346.456,435.139 349.623,437.139 352.5,439.5C 345.017,450.72 334.683,454.553 321.5,451C 307.148,443.899 301.982,432.399 306,416.5C 308.936,408.734 314.102,403.067 321.5,399.5 Z"/></g>
<g><path style="opacity:1" fill="#f6f3f0" d="M 455.5,399.5 C 472.013,396.086 483.346,402.086 489.5,417.5C 485.317,419.137 480.984,420.137 476.5,420.5C 474.196,411.675 468.529,408.508 459.5,411C 453.324,413.85 450.657,418.683 451.5,425.5C 451.435,437.652 457.435,442.485 469.5,440C 473.892,438.394 476.225,435.228 476.5,430.5C 480.853,431.059 485.186,431.725 489.5,432.5C 485.956,445.218 477.456,451.885 464,452.5C 451.732,451.874 443.399,445.874 439,434.5C 434.922,417.998 440.422,406.331 455.5,399.5 Z"/></g>
<g><path style="opacity:1" fill="#f6f3f1" d="M 515.5,399.5 C 544.235,397.65 555.068,410.65 548,438.5C 542.533,447.656 534.367,452.323 523.5,452.5C 502.385,448.971 494.219,436.638 499,415.5C 502.109,407.559 507.609,402.225 515.5,399.5 Z"/></g>
<g><path style="opacity:1" fill="#f6f3ef" d="M 695.5,398.5 C 703.998,397.83 711.498,400.163 718,405.5C 720.146,408.126 721.479,411.126 722,414.5C 722.333,422.833 722.667,431.167 723,439.5C 724.699,440.406 726.533,440.739 728.5,440.5C 728.5,443.833 728.5,447.167 728.5,450.5C 724.486,450.666 720.486,450.499 716.5,450C 713.734,448.471 711.734,446.304 710.5,443.5C 707.009,449.583 701.676,452.583 694.5,452.5C 677.179,449.686 672.513,440.519 680.5,425C 682.888,423.139 685.554,421.806 688.5,421C 695.492,420.5 702.492,420.334 709.5,420.5C 709.628,411.035 704.961,407.535 695.5,410C 692.832,411.872 690.498,414.038 688.5,416.5C 684.899,415.746 681.566,414.413 678.5,412.5C 681.814,404.842 687.481,400.175 695.5,398.5 Z"/></g>
<g><path style="opacity:1" fill="#f6f4f2" d="M 114.5,400.5 C 118.833,400.5 123.167,400.5 127.5,400.5C 127.333,411.505 127.5,422.505 128,433.5C 129.396,438.536 132.729,440.869 138,440.5C 142.858,440.573 146.525,438.573 149,434.5C 150.409,423.23 150.909,411.896 150.5,400.5C 154.833,400.5 159.167,400.5 163.5,400.5C 163.5,417.167 163.5,433.833 163.5,450.5C 159.167,450.5 154.833,450.5 150.5,450.5C 150.799,448.396 150.466,446.396 149.5,444.5C 142.796,451.57 134.796,453.403 125.5,450C 119.636,446.438 116.136,441.272 115,434.5C 114.5,423.172 114.333,411.838 114.5,400.5 Z"/></g>
<g><path style="opacity:1" fill="#f6f4f1" d="M 584.5,399.5 C 592.614,398.06 598.947,400.727 603.5,407.5C 610.726,398.636 619.393,397.136 629.5,403C 631.956,405.408 633.789,408.241 635,411.5C 635.5,424.496 635.667,437.496 635.5,450.5C 631.167,450.5 626.833,450.5 622.5,450.5C 622.667,438.495 622.5,426.495 622,414.5C 620.471,411.484 617.971,410.151 614.5,410.5C 610.497,410.249 607.664,411.916 606,415.5C 605.5,427.162 605.333,438.829 605.5,450.5C 601.167,450.5 596.833,450.5 592.5,450.5C 592.667,438.495 592.5,426.495 592,414.5C 588.229,410.212 583.729,409.379 578.5,412C 577.299,412.903 576.465,414.069 576,415.5C 575.5,427.162 575.333,438.829 575.5,450.5C 571.167,450.5 566.833,450.5 562.5,450.5C 562.5,433.833 562.5,417.167 562.5,400.5C 566.5,400.5 570.5,400.5 574.5,400.5C 574.5,402.167 574.5,403.833 574.5,405.5C 575.552,405.649 576.552,405.483 577.5,405C 579.54,402.664 581.873,400.831 584.5,399.5 Z"/></g>
<g><path style="opacity:1" fill="#f6f3f1" d="M 736.5,400.5 C 740.833,400.5 745.167,400.5 749.5,400.5C 749.333,411.838 749.5,423.172 750,434.5C 751.935,438.802 755.268,440.802 760,440.5C 766.941,440.696 770.941,437.363 772,430.5C 772.5,420.506 772.666,410.506 772.5,400.5C 776.833,400.5 781.167,400.5 785.5,400.5C 785.5,417.167 785.5,433.833 785.5,450.5C 781.167,450.5 776.833,450.5 772.5,450.5C 772.799,448.396 772.466,446.396 771.5,444.5C 764.796,451.57 756.796,453.403 747.5,450C 742.123,446.957 738.623,442.457 737,436.5C 736.5,424.505 736.333,412.505 736.5,400.5 Z"/></g>
<g><path style="opacity:1" fill="#ff8808" d="M 196.5,410.5 C 213.502,410.03 219.335,418.03 214,434.5C 209.47,440.171 203.637,442.004 196.5,440C 193.789,438.739 191.622,436.906 190,434.5C 186.195,424.603 188.362,416.603 196.5,410.5 Z"/></g>
<g><path style="opacity:1" fill="#ff880a" d="M 261.5,410.5 C 277.514,409.684 283.347,417.017 279,432.5C 274.874,438.97 269.041,441.137 261.5,439C 257.763,437.719 255.263,435.219 254,431.5C 253.333,426.833 253.333,422.167 254,417.5C 255.742,414.254 258.242,411.921 261.5,410.5 Z"/></g>
<g><path style="opacity:1" fill="#ff890e" d="M 324.5,410.5 C 328.967,410.133 333.3,410.633 337.5,412C 340.024,413.883 341.358,416.383 341.5,419.5C 333.833,419.5 326.167,419.5 318.5,419.5C 318.932,415.41 320.932,412.41 324.5,410.5 Z"/></g>
<g><path style="opacity:1" fill="#fe880a" d="M 519.5,410.5 C 536.016,410.555 541.516,418.555 536,434.5C 531.422,440.055 525.588,441.888 518.5,440C 511.286,435.037 508.786,428.203 511,419.5C 512.688,415.315 515.521,412.315 519.5,410.5 Z"/></g>
<g><path style="opacity:1" fill="#fab972" d="M 82.5,421.5 C 77.8333,421.5 73.1667,421.5 68.5,421.5C 68.5,427.167 68.5,432.833 68.5,438.5C 67.5104,432.69 67.1771,426.69 67.5,420.5C 72.6946,420.179 77.6946,420.513 82.5,421.5 Z"/></g>
<g><path style="opacity:1" fill="#fe8807" d="M 82.5,421.5 C 89.955,423.076 92.1217,427.41 89,434.5C 87.6811,436.487 85.8477,437.654 83.5,438C 78.5111,438.499 73.5111,438.666 68.5,438.5C 68.5,432.833 68.5,427.167 68.5,421.5C 73.1667,421.5 77.8333,421.5 82.5,421.5 Z"/></g>
<g><path style="opacity:1" fill="#fe8b14" d="M 693.5,429.5 C 698.833,429.5 704.167,429.5 709.5,429.5C 708.382,439.742 702.715,443.575 692.5,441C 688.307,436.683 688.64,432.85 693.5,429.5 Z"/></g>
<g><path style="opacity:1" fill="#f7f2ed" d="M 416.5,432.5 C 426.765,433.359 430.265,438.693 427,448.5C 420.555,454.21 414.888,453.543 410,446.5C 408.17,439.832 410.337,435.165 416.5,432.5 Z"/></g>
<g><path style="opacity:1" fill="#f6f2ee" d="M 654.5,432.5 C 664.024,432.522 667.858,437.189 666,446.5C 662.044,452.759 656.878,453.926 650.5,450C 645.682,442.732 647.016,436.899 654.5,432.5 Z"/></g>
</svg>
