<?xml version="1.0" encoding="UTF-8"?>
<!DOCTYPE svg PUBLIC "-//W3C//DTD SVG 1.1//EN" "http://www.w3.org/Graphics/SVG/1.1/DTD/svg11.dtd">
<svg xmlns="http://www.w3.org/2000/svg" version="1.1" width="814px" height="418px" style="shape-rendering:geometricPrecision; text-rendering:geometricPrecision; image-rendering:optimizeQuality; fill-rule:evenodd; clip-rule:evenodd" xmlns:xlink="http://www.w3.org/1999/xlink">
<g><path style="opacity:1" fill="#fefefe" d="M 3.5,-0.5 C 273.5,-0.5 543.5,-0.5 813.5,-0.5C 813.5,138.833 813.5,278.167 813.5,417.5C 810.5,417.5 807.5,417.5 804.5,417.5C 804.762,416.022 804.429,414.689 803.5,413.5C 750.041,366.863 694.708,322.696 637.5,281C 510.275,191.712 372.942,120.712 225.5,68C 152.372,41.7869 78.3724,18.9536 3.5,-0.5 Z"/></g>
<g><path style="opacity:1" fill="#e733a2" d="M -0.5,-0.5 C 0.833333,-0.5 2.16667,-0.5 3.5,-0.5C 78.3724,18.9536 152.372,41.7869 225.5,68C 372.942,120.712 510.275,191.712 637.5,281C 694.708,322.696 750.041,366.863 803.5,413.5C 804.429,414.689 804.762,416.022 804.5,417.5C 536.167,417.5 267.833,417.5 -0.5,417.5C -0.5,278.167 -0.5,138.833 -0.5,-0.5 Z"/></g>
<g><path style="opacity:1" fill="#fefbfd" d="M 46.5,145.5 C 46.5,133.833 46.5,122.167 46.5,110.5C 44.8333,110.5 43.1667,110.5 41.5,110.5C 37.2978,109.048 36.4645,106.381 39,102.5C 53.1667,89.6667 67.3333,76.8333 81.5,64C 85.2072,63.0037 88.5405,63.6704 91.5,66C 94.7012,69.5364 98.2012,72.7031 102,75.5C 101.806,71.7403 102.973,68.5736 105.5,66C 109.5,65.3333 113.5,65.3333 117.5,66C 118.667,67.1667 119.833,68.3333 121,69.5C 121.333,77.5 121.667,85.5 122,93.5C 126.422,97.415 130.255,101.748 133.5,106.5C 133.471,108.029 132.804,109.196 131.5,110C 129.19,110.497 126.857,110.663 124.5,110.5C 124.667,122.838 124.5,135.171 124,147.5C 122.833,149.333 121.333,150.833 119.5,152C 107.833,152.667 96.1667,152.667 84.5,152C 83.6842,144.579 83.1842,137.079 83,129.5C 81.5881,124.709 78.4214,122.876 73.5,124C 72.2986,124.903 71.4652,126.069 71,127.5C 70.6667,135.167 70.3333,142.833 70,150.5C 69.5,151 69,151.5 68.5,152C 62.5,152.667 56.5,152.667 50.5,152C 48.2663,150.362 46.933,148.195 46.5,145.5 Z"/></g>
<g><path style="opacity:1" fill="#e737a3" d="M 116.5,145.5 C 107.833,145.5 99.1667,145.5 90.5,145.5C 90.8229,139.31 90.4896,133.31 89.5,127.5C 86.0106,117.256 79.3439,114.423 69.5,119C 67.2911,120.873 65.4578,123.04 64,125.5C 63.5004,132.158 63.3337,138.825 63.5,145.5C 60.1667,145.5 56.8333,145.5 53.5,145.5C 53.6666,132.163 53.4999,118.829 53,105.5C 50.7323,104.924 49.7323,103.59 50,101.5C 61.466,91.7025 72.6327,81.5358 83.5,71C 84.5,70.3333 85.5,70.3333 86.5,71C 92.718,76.8889 99.218,82.3889 106,87.5C 107.221,86.7282 108.221,85.7282 109,84.5C 109.499,80.5138 109.666,76.5138 109.5,72.5C 111.167,72.5 112.833,72.5 114.5,72.5C 114.334,80.5069 114.5,88.5069 115,96.5C 117.167,98.6667 119.333,100.833 121.5,103C 120.069,103.465 118.903,104.299 118,105.5C 117.831,119.006 117.331,132.34 116.5,145.5 Z"/></g>
<g><path style="opacity:1" fill="#fef9fc" d="M 97.5,117.5 C 112.328,114.831 117.328,120.664 112.5,135C 97.1485,141.233 91.3151,136.399 95,120.5C 96.045,119.627 96.8783,118.627 97.5,117.5 Z"/></g>
<g><path style="opacity:1" fill="#e947a9" d="M 99.5,123.5 C 102.167,123.5 104.833,123.5 107.5,123.5C 107.5,126.167 107.5,128.833 107.5,131.5C 104.833,131.5 102.167,131.5 99.5,131.5C 99.5,128.833 99.5,126.167 99.5,123.5 Z"/></g>
<g><path style="opacity:1" fill="#f399d1" d="M 41.5,110.5 C 43.1667,110.5 44.8333,110.5 46.5,110.5C 46.5,122.167 46.5,133.833 46.5,145.5C 45.5052,134.346 45.1719,123.012 45.5,111.5C 43.901,111.768 42.5676,111.434 41.5,110.5 Z"/></g>
<g><path style="opacity:1" fill="#f7bde1" d="M 89.5,127.5 C 90.4896,133.31 90.8229,139.31 90.5,145.5C 99.1667,145.5 107.833,145.5 116.5,145.5C 107.682,146.493 98.6822,146.827 89.5,146.5C 89.5,140.167 89.5,133.833 89.5,127.5 Z"/></g>
<g><path style="opacity:1" fill="#fefafc" d="M 46.5,210.5 C 46.2172,209.711 45.7172,209.044 45,208.5C 44.1743,219.674 44.341,230.674 45.5,241.5C 45.4914,243.308 45.9914,244.975 47,246.5C 49.1761,246.988 51.0094,247.988 52.5,249.5C 45.8333,250.833 39.1667,250.833 32.5,249.5C 34.3686,248.376 36.3686,247.543 38.5,247C 39.1258,246.25 39.6258,245.416 40,244.5C 40.6667,230.167 40.6667,215.833 40,201.5C 38.5347,199.085 36.368,198.085 33.5,198.5C 33.5,197.5 33.5,196.5 33.5,195.5C 39.0934,195.193 44.5934,195.527 50,196.5C 56.1935,209.415 62.1935,222.415 68,235.5C 74.3105,222.744 80.1438,209.744 85.5,196.5C 91.1278,195.505 96.7945,195.171 102.5,195.5C 102.5,196.5 102.5,197.5 102.5,198.5C 99.632,198.085 97.4653,199.085 96,201.5C 95.3333,215.833 95.3333,230.167 96,244.5C 97.4667,246.993 99.6334,248.66 102.5,249.5C 94.8333,250.833 87.1667,250.833 79.5,249.5C 81.9082,248.547 84.0749,247.213 86,245.5C 86.6667,232.833 86.6667,220.167 86,207.5C 79.6622,222.172 72.8289,236.505 65.5,250.5C 58.6596,237.483 52.3263,224.15 46.5,210.5 Z"/></g>
<g><path style="opacity:1" fill="#fef8fc" d="M 119.5,212.5 C 136.107,211.274 143.94,218.941 143,235.5C 138.445,250.36 128.945,254.86 114.5,249C 106.587,241.645 104.42,232.812 108,222.5C 110.818,217.839 114.651,214.505 119.5,212.5 Z"/></g>
<g><path style="opacity:1" fill="#fefbfd" d="M 183.5,202.5 C 185.414,205.684 186.08,209.351 185.5,213.5C 188.167,213.5 190.833,213.5 193.5,213.5C 193.5,214.5 193.5,215.5 193.5,216.5C 190.833,216.5 188.167,216.5 185.5,216.5C 185.334,225.839 185.5,235.173 186,244.5C 189.34,245.299 192.507,245.299 195.5,244.5C 192.067,250.892 187.067,252.726 180.5,250C 179.107,248.829 178.273,247.329 178,245.5C 177.5,235.839 177.334,226.172 177.5,216.5C 175.833,216.5 174.167,216.5 172.5,216.5C 172.804,219.233 171.637,220.899 169,221.5C 167.263,220.38 165.429,219.38 163.5,218.5C 161.473,219.693 159.973,221.36 159,223.5C 158.333,230.833 158.333,238.167 159,245.5C 160.667,247.628 162.834,248.961 165.5,249.5C 158.833,250.833 152.167,250.833 145.5,249.5C 146.85,248.05 148.516,247.383 150.5,247.5C 151.578,238.868 151.744,230.202 151,221.5C 149.913,219.248 148.079,217.915 145.5,217.5C 149.6,215.244 153.934,213.577 158.5,212.5C 158.338,214.527 158.505,216.527 159,218.5C 160.833,216.667 162.667,214.833 164.5,213C 167.956,211.877 170.79,212.71 173,215.5C 177.468,211.868 180.968,207.534 183.5,202.5 Z"/></g>
<g><path style="opacity:1" fill="#fef6fb" d="M 209.5,212.5 C 217.465,213.49 225.465,214.157 233.5,214.5C 233.938,218.908 231.938,220.575 227.5,219.5C 229.762,226.213 228.095,231.713 222.5,236C 218.057,237.94 213.39,238.94 208.5,239C 206.473,240.396 206.14,242.062 207.5,244C 214.997,244.057 222.331,245.057 229.5,247C 234.573,255.88 232.24,262.213 222.5,266C 214.648,269.559 206.981,269.226 199.5,265C 195.68,261.725 195.513,258.225 199,254.5C 200.635,253.274 202.135,251.941 203.5,250.5C 200.743,248.912 199.91,246.579 201,243.5C 202.458,241.04 204.291,238.873 206.5,237C 196.482,227.573 197.482,219.406 209.5,212.5 Z"/></g>
<g><path style="opacity:1" fill="#fef9fc" d="M 246.5,212.5 C 250.846,212.334 255.179,212.501 259.5,213C 261.286,213.785 262.786,214.951 264,216.5C 265.248,225.425 265.915,234.425 266,243.5C 267.71,244.945 269.544,245.778 271.5,246C 270.899,247.605 269.899,248.938 268.5,250C 263.915,251.518 260.415,250.351 258,246.5C 253.018,250.96 247.518,251.96 241.5,249.5C 237.687,244.663 237.521,239.663 241,234.5C 246.382,230.976 252.048,227.976 258,225.5C 259.954,216.45 256.62,213.45 248,216.5C 247.989,219.659 247.155,222.493 245.5,225C 239.609,225.362 238.109,222.862 241,217.5C 242.812,215.7 244.645,214.033 246.5,212.5 Z"/></g>
<g><path style="opacity:1" fill="#fef7fb" d="M 285.5,212.5 C 293.495,213.217 301.495,214.05 309.5,215C 310.337,216.011 310.67,217.178 310.5,218.5C 308.076,218.192 305.743,218.526 303.5,219.5C 305.883,233.296 299.883,239.796 285.5,239C 283.473,240.396 283.14,242.062 284.5,244C 289.833,244.333 295.167,244.667 300.5,245C 308.771,246.921 311.271,251.755 308,259.5C 299.231,268.234 289.064,270.401 277.5,266C 273.356,263.28 272.523,259.78 275,255.5C 276.833,253.667 278.667,251.833 280.5,250C 277.621,248.334 276.788,245.834 278,242.5C 279.833,240.667 281.667,238.833 283.5,237C 275.648,231.382 274.482,224.549 280,216.5C 282.015,215.303 283.849,213.97 285.5,212.5 Z"/></g>
<g><path style="opacity:1" fill="#f6b6de" d="M 46.5,210.5 C 45.5058,220.653 45.1724,230.986 45.5,241.5C 44.341,230.674 44.1743,219.674 45,208.5C 45.7172,209.044 46.2172,209.711 46.5,210.5 Z"/></g>
<g><path style="opacity:1" fill="#fef9fc" d="M 344.5,223.5 C 344.5,224.833 344.5,226.167 344.5,227.5C 336.316,227.174 328.316,227.508 320.5,228.5C 320.391,240.231 326.058,245.398 337.5,244C 340.5,242.333 342.833,240 344.5,237C 345.483,236.409 346.15,236.743 346.5,238C 342.804,248.514 335.471,252.847 324.5,251C 318.384,248.549 314.884,244.049 314,237.5C 312.146,229.067 314.312,221.9 320.5,216C 328.672,210.792 336.172,211.626 343,218.5C 344.009,220.025 344.509,221.692 344.5,223.5 Z"/></g>
<g><path style="opacity:1" fill="#e739a4" d="M 210.5,215.5 C 217.68,216.029 221.013,220.029 220.5,227.5C 220.913,234.599 217.913,236.765 211.5,234C 206.724,227.992 206.39,221.826 210.5,215.5 Z"/></g>
<g><path style="opacity:1" fill="#e737a3" d="M 287.5,215.5 C 291.683,214.846 294.516,216.512 296,220.5C 298.486,225.791 297.986,230.624 294.5,235C 289.537,235.733 286.37,233.567 285,228.5C 283.743,223.617 284.576,219.284 287.5,215.5 Z"/></g>
<g><path style="opacity:1" fill="#e736a3" d="M 121.5,215.5 C 128.919,215.937 133.086,219.937 134,227.5C 135.061,233.724 134.394,239.724 132,245.5C 126.651,249.943 121.985,249.276 118,243.5C 115.266,237.094 114.266,230.428 115,223.5C 116.305,220.039 118.471,217.372 121.5,215.5 Z"/></g>
<g><path style="opacity:1" fill="#e739a4" d="M 325.5,216.5 C 332.013,215.404 335.346,218.071 335.5,224.5C 330.456,224.827 325.456,224.494 320.5,223.5C 321.466,220.531 323.133,218.198 325.5,216.5 Z"/></g>
<g><path style="opacity:1" fill="#fad2ea" d="M 344.5,223.5 C 345.451,224.919 345.784,226.585 345.5,228.5C 337.167,228.5 328.833,228.5 320.5,228.5C 328.316,227.508 336.316,227.174 344.5,227.5C 344.5,226.167 344.5,224.833 344.5,223.5 Z"/></g>
<g><path style="opacity:1" fill="#e739a4" d="M 255.5,229.5 C 256.5,229.5 257.5,229.5 258.5,229.5C 258.666,233.514 258.499,237.514 258,241.5C 255.217,245.823 251.717,246.49 247.5,243.5C 246.456,241.232 246.289,238.899 247,236.5C 249.391,233.607 252.225,231.273 255.5,229.5 Z"/></g>
<g><path style="opacity:1" fill="#e736a3" d="M 206.5,251.5 C 213.555,251.27 220.555,251.77 227.5,253C 230.192,255.632 229.859,257.966 226.5,260C 220.388,262.414 214.054,263.081 207.5,262C 202.539,259.008 202.205,255.508 206.5,251.5 Z"/></g>
<g><path style="opacity:1" fill="#e739a4" d="M 282.5,251.5 C 289.888,251.253 297.221,251.753 304.5,253C 307.192,255.632 306.859,257.966 303.5,260C 296.212,263.069 288.879,263.236 281.5,260.5C 280.197,257.317 280.531,254.317 282.5,251.5 Z"/></g>
<g><path style="opacity:1" fill="#f5f2f4" d="M 158.5,304.5 C 159.5,304.5 160.5,304.5 161.5,304.5C 161.333,320.837 161.5,337.17 162,353.5C 163.699,354.406 165.533,354.739 167.5,354.5C 167.5,355.5 167.5,356.5 167.5,357.5C 163.314,358.229 159.314,359.562 155.5,361.5C 154.731,357 153.064,356.5 150.5,360C 139.466,363.4 132.3,359.567 129,348.5C 126.922,336.824 131.089,328.324 141.5,323C 145.701,322.078 149.701,322.578 153.5,324.5C 154.661,320.205 154.828,315.871 154,311.5C 152.4,310.134 150.567,309.134 148.5,308.5C 151.928,307.156 155.261,305.822 158.5,304.5 Z"/></g>
<g><path style="opacity:1" fill="#f5f0f3" d="M 33.5,305.5 C 42.8393,305.334 52.1726,305.5 61.5,306C 76.8197,307.648 81.153,315.315 74.5,329C 72.8333,330 71.1667,331 69.5,332C 80.7192,336.279 83.5525,343.779 78,354.5C 75.1253,357.463 71.6253,359.296 67.5,360C 56.152,360.832 44.8187,360.666 33.5,359.5C 35.2199,358.066 37.2199,357.233 39.5,357C 40.1905,355.933 40.6905,354.766 41,353.5C 41.6667,340.167 41.6667,326.833 41,313.5C 39.9994,309.741 37.4994,308.074 33.5,308.5C 33.5,307.5 33.5,306.5 33.5,305.5 Z"/></g>
<g><path style="opacity:1" fill="#e736a3" d="M 57.5,329.5 C 55.1667,329.5 52.8333,329.5 50.5,329.5C 50.5,323.5 50.5,317.5 50.5,311.5C 57.0376,308.587 62.8709,309.92 68,315.5C 70.5028,324.862 67.0028,329.529 57.5,329.5 Z"/></g>
<g><path style="opacity:1" fill="#f1badc" d="M 50.5,311.5 C 50.5,317.5 50.5,323.5 50.5,329.5C 52.8333,329.5 55.1667,329.5 57.5,329.5C 55.0521,330.473 52.3854,330.806 49.5,330.5C 49.1765,323.978 49.5098,317.645 50.5,311.5 Z"/></g>
<g><path style="opacity:1" fill="#f5f0f3" d="M 255.5,312.5 C 257.414,315.684 258.08,319.351 257.5,323.5C 260.167,323.5 262.833,323.5 265.5,323.5C 265.5,324.5 265.5,325.5 265.5,326.5C 262.833,326.5 260.167,326.5 257.5,326.5C 257.334,335.506 257.5,344.506 258,353.5C 260.746,356.025 263.58,356.025 266.5,353.5C 266.833,353.833 267.167,354.167 267.5,354.5C 264.144,360.845 259.144,362.679 252.5,360C 251.283,358.352 250.45,356.519 250,354.5C 249.5,345.173 249.334,335.839 249.5,326.5C 248.022,326.762 246.689,326.429 245.5,325.5C 249.648,321.699 252.981,317.366 255.5,312.5 Z"/></g>
<g><path style="opacity:1" fill="#f5eef2" d="M 182.5,322.5 C 190.465,323.49 198.465,324.157 206.5,324.5C 206.938,328.908 204.938,330.575 200.5,329.5C 202.762,336.213 201.095,341.713 195.5,346C 191.057,347.94 186.39,348.94 181.5,349C 179.473,350.396 179.14,352.062 180.5,354C 185.833,354.333 191.167,354.667 196.5,355C 205.785,357.48 207.952,362.98 203,371.5C 193.515,379.04 183.349,380.207 172.5,375C 168.68,371.725 168.513,368.225 172,364.5C 173.972,363.695 175.472,362.361 176.5,360.5C 173.743,358.912 172.91,356.579 174,353.5C 175.458,351.04 177.291,348.873 179.5,347C 169.482,337.573 170.482,329.406 182.5,322.5 Z"/></g>
<g><path style="opacity:1" fill="#f5eff2" d="M 302.5,322.5 C 308.932,321.347 314.432,323.014 319,327.5C 320.404,334.543 318.071,336.21 312,332.5C 311,325.827 307.5,323.993 301.5,327C 296.755,332.269 295.255,338.436 297,345.5C 303.433,356.818 310.933,357.484 319.5,347.5C 318.585,356.073 313.585,360.74 304.5,361.5C 294.165,359.491 288.832,353.158 288.5,342.5C 288.934,332.753 293.6,326.086 302.5,322.5 Z"/></g>
<g><path style="opacity:1" fill="#f5eef2" d="M 459.5,322.5 C 463.514,322.334 467.514,322.501 471.5,323C 475.521,324.868 477.687,328.035 478,332.5C 478.5,340.159 478.666,347.826 478.5,355.5C 485.386,354.002 486.053,355.502 480.5,360C 475.863,362.508 472.53,361.342 470.5,356.5C 465.68,360.542 460.347,361.708 454.5,360C 448.774,353.398 449.441,347.398 456.5,342C 460.863,339.316 465.53,337.482 470.5,336.5C 472.844,328.023 469.844,324.523 461.5,326C 459.953,328.773 458.953,331.773 458.5,335C 452.068,335.899 450.235,333.399 453,327.5C 454.965,325.45 457.132,323.783 459.5,322.5 Z"/></g>
<g><path style="opacity:1" fill="#f5eff2" d="M 86.5,322.5 C 90.8333,322.5 95.1667,322.5 99.5,322.5C 99.3335,332.172 99.5002,341.839 100,351.5C 104.079,356.68 108.412,356.68 113,351.5C 113.667,343.5 113.667,335.5 113,327.5C 111.556,325.845 109.722,325.178 107.5,325.5C 107.5,324.5 107.5,323.5 107.5,322.5C 111.833,322.5 116.167,322.5 120.5,322.5C 120.334,332.839 120.5,343.172 121,353.5C 122.307,354.772 123.807,355.772 125.5,356.5C 121.952,358.353 118.285,360.019 114.5,361.5C 114.463,355.224 112.796,354.39 109.5,359C 103.239,362.915 97.7388,362.082 93,356.5C 91.7425,346.573 91.0758,336.573 91,326.5C 89.9326,325.809 88.7659,325.309 87.5,325C 86.7476,324.329 86.4142,323.496 86.5,322.5 Z"/></g>
<g><path style="opacity:1" fill="#f5eef2" d="M 222.5,322.5 C 234.38,321.387 240.714,326.721 241.5,338.5C 233.167,338.5 224.833,338.5 216.5,338.5C 216.429,350.271 222.095,355.438 233.5,354C 236.645,352.022 239.312,349.522 241.5,346.5C 242.308,346.808 242.975,347.308 243.5,348C 239.213,358.31 231.546,362.644 220.5,361C 214.741,358.342 211.241,353.842 210,347.5C 208.389,336.053 212.556,327.72 222.5,322.5 Z"/></g>
<g><path style="opacity:1" fill="#f5f0f3" d="M 338.5,322.5 C 355.107,321.274 362.94,328.941 362,345.5C 357.403,360.382 347.903,364.882 333.5,359C 325.587,351.645 323.42,342.812 327,332.5C 329.818,327.839 333.651,324.505 338.5,322.5 Z"/></g>
<g><path style="opacity:1" fill="#f5f2f4" d="M 375.5,322.5 C 377.164,323.949 377.998,325.949 378,328.5C 382.793,322.902 388.626,321.402 395.5,324C 397.049,325.214 398.215,326.714 399,328.5C 401.564,326.273 404.397,324.439 407.5,323C 414.075,321.038 418.575,323.205 421,329.5C 421.333,338.167 421.667,346.833 422,355.5C 423.362,357.436 425.195,358.769 427.5,359.5C 421.167,360.833 414.833,360.833 408.5,359.5C 410.805,358.769 412.638,357.436 414,355.5C 414.91,346.756 414.576,338.089 413,329.5C 407.825,326.404 403.492,327.404 400,332.5C 399.099,340.579 399.432,348.579 401,356.5C 402.307,357.772 403.807,358.772 405.5,359.5C 399.167,360.833 392.833,360.833 386.5,359.5C 388.805,358.769 390.638,357.436 392,355.5C 392.667,347.5 392.667,339.5 392,331.5C 387.93,326.394 383.597,326.394 379,331.5C 378.333,340.167 378.333,348.833 379,357.5C 380.509,358.09 382.009,358.756 383.5,359.5C 377.167,360.833 370.833,360.833 364.5,359.5C 366.567,358.866 368.4,357.866 370,356.5C 370.667,347.5 370.667,338.5 370,329.5C 368.491,328.91 366.991,328.244 365.5,327.5C 368.894,325.803 372.227,324.136 375.5,322.5 Z"/></g>
<g><path style="opacity:1" fill="#f5eef2" d="M 484.5,322.5 C 488.5,322.5 492.5,322.5 496.5,322.5C 496.334,332.172 496.5,341.839 497,351.5C 501.079,356.68 505.412,356.68 510,351.5C 510.667,343.5 510.667,335.5 510,327.5C 508.556,325.845 506.722,325.178 504.5,325.5C 504.5,324.5 504.5,323.5 504.5,322.5C 509.099,322.2 513.599,322.533 518,323.5C 518.333,333.833 518.667,344.167 519,354.5C 520.509,355.09 522.009,355.756 523.5,356.5C 519.548,358.162 515.548,359.828 511.5,361.5C 510.833,359.833 510.167,358.167 509.5,356.5C 503.468,362.436 497.302,362.769 491,357.5C 489.716,347.599 489.049,337.599 489,327.5C 487.89,325.963 486.39,325.297 484.5,325.5C 484.5,324.5 484.5,323.5 484.5,322.5 Z"/></g>
<g><path style="opacity:1" fill="#e739a4" d="M 143.5,325.5 C 149.439,324.937 152.939,327.603 154,333.5C 154.667,339.5 154.667,345.5 154,351.5C 151.36,356.453 147.527,357.62 142.5,355C 135.926,347.321 134.759,338.821 139,329.5C 140.397,327.93 141.897,326.596 143.5,325.5 Z"/></g>
<g><path style="opacity:1" fill="#e739a4" d="M 183.5,325.5 C 190.68,326.029 194.013,330.029 193.5,337.5C 193.913,344.599 190.913,346.765 184.5,344C 179.724,337.992 179.39,331.826 183.5,325.5 Z"/></g>
<g><path style="opacity:1" fill="#e73ba4" d="M 221.5,326.5 C 227.518,325.191 231.185,327.524 232.5,333.5C 227.198,334.663 221.864,334.829 216.5,334C 217.574,331.095 219.241,328.595 221.5,326.5 Z"/></g>
<g><path style="opacity:1" fill="#e736a3" d="M 340.5,325.5 C 347.919,325.937 352.086,329.937 353,337.5C 353.667,341.833 353.667,346.167 353,350.5C 349.328,359.931 343.995,360.931 337,353.5C 334.266,347.094 333.266,340.428 334,333.5C 335.305,330.039 337.471,327.372 340.5,325.5 Z"/></g>
<g><path style="opacity:1" fill="#e733a2" d="M 50.5,334.5 C 57.4831,333.469 63.6498,335.136 69,339.5C 72.4576,347.397 70.291,352.897 62.5,356C 58.577,356.793 54.7436,356.626 51,355.5C 50.5004,348.508 50.3337,341.508 50.5,334.5 Z"/></g>
<g><path style="opacity:1" fill="#e737a3" d="M 467.5,339.5 C 468.5,339.5 469.5,339.5 470.5,339.5C 470.666,343.846 470.499,348.179 470,352.5C 462.28,357.77 458.613,355.77 459,346.5C 461.441,343.546 464.275,341.213 467.5,339.5 Z"/></g>
<g><path style="opacity:1" fill="#f5edf2" d="M 278.5,351.5 C 285.821,352.319 287.154,355.486 282.5,361C 277,362.167 274.833,360 276,354.5C 276.698,353.309 277.531,352.309 278.5,351.5 Z"/></g>
<g><path style="opacity:1" fill="#f5eff3" d="M 438.5,351.5 C 443.325,351.488 445.491,353.821 445,358.5C 442,362.5 439,362.5 436,358.5C 435.333,357.167 435.333,355.833 436,354.5C 437.045,353.627 437.878,352.627 438.5,351.5 Z"/></g>
<g><path style="opacity:1" fill="#e739a4" d="M 179.5,361.5 C 185.842,361.334 192.175,361.5 198.5,362C 203.325,364.135 203.659,366.801 199.5,370C 193.388,372.414 187.054,373.081 180.5,372C 175.539,369.008 175.205,365.508 179.5,361.5 Z"/></g>
</svg>
